<mxfile host="app.diagrams.net" modified="2023-10-24T18:37:58.332Z" agent="Mozilla/5.0 (Windows NT 10.0; Win64; x64) AppleWebKit/537.36 (KHTML, like Gecko) Chrome/118.0.0.0 Safari/537.36" etag="ElckF-wbUTL4yMoWgKZ7" version="22.0.7" type="github">
  <diagram name="Page-1" id="1OwEeoUuIHIe6JlHt5PY">
    <mxGraphModel dx="1434" dy="870" grid="1" gridSize="10" guides="1" tooltips="1" connect="1" arrows="1" fold="1" page="1" pageScale="1" pageWidth="850" pageHeight="1100" math="0" shadow="0">
      <root>
        <mxCell id="0" />
        <mxCell id="1" parent="0" />
        <mxCell id="UK7c6okPU0lDiScp88yB-2" style="edgeStyle=orthogonalEdgeStyle;rounded=0;orthogonalLoop=1;jettySize=auto;html=1;exitX=0.835;exitY=0.5;exitDx=0;exitDy=0;exitPerimeter=0;entryX=0;entryY=0.5;entryDx=0;entryDy=0;entryPerimeter=0;" edge="1" parent="1" source="UK7c6okPU0lDiScp88yB-1" target="UK7c6okPU0lDiScp88yB-3">
          <mxGeometry relative="1" as="geometry">
            <mxPoint x="420" y="360" as="targetPoint" />
          </mxGeometry>
        </mxCell>
        <mxCell id="UK7c6okPU0lDiScp88yB-1" value="" style="outlineConnect=0;dashed=0;verticalLabelPosition=bottom;verticalAlign=top;align=center;html=1;shape=mxgraph.aws3.elastic_load_balancing;fillColor=#F58534;gradientColor=none;" vertex="1" parent="1">
          <mxGeometry x="310" y="310.5" width="76.5" height="93" as="geometry" />
        </mxCell>
        <mxCell id="UK7c6okPU0lDiScp88yB-16" style="edgeStyle=orthogonalEdgeStyle;rounded=0;orthogonalLoop=1;jettySize=auto;html=1;exitX=0.5;exitY=0;exitDx=0;exitDy=0;exitPerimeter=0;" edge="1" parent="1" source="UK7c6okPU0lDiScp88yB-3" target="UK7c6okPU0lDiScp88yB-15">
          <mxGeometry relative="1" as="geometry">
            <Array as="points">
              <mxPoint x="520" y="318" />
              <mxPoint x="520" y="249" />
            </Array>
          </mxGeometry>
        </mxCell>
        <mxCell id="UK7c6okPU0lDiScp88yB-3" value="" style="sketch=0;points=[[0,0,0],[0.25,0,0],[0.5,0,0],[0.75,0,0],[1,0,0],[0,1,0],[0.25,1,0],[0.5,1,0],[0.75,1,0],[1,1,0],[0,0.25,0],[0,0.5,0],[0,0.75,0],[1,0.25,0],[1,0.5,0],[1,0.75,0]];outlineConnect=0;fontColor=#232F3E;fillColor=#ED7100;strokeColor=#ffffff;dashed=0;verticalLabelPosition=bottom;verticalAlign=top;align=center;html=1;fontSize=12;fontStyle=0;aspect=fixed;shape=mxgraph.aws4.resourceIcon;resIcon=mxgraph.aws4.eks;" vertex="1" parent="1">
          <mxGeometry x="480" y="318" width="78" height="78" as="geometry" />
        </mxCell>
        <mxCell id="UK7c6okPU0lDiScp88yB-5" style="edgeStyle=orthogonalEdgeStyle;rounded=0;orthogonalLoop=1;jettySize=auto;html=1;entryX=0;entryY=0.5;entryDx=0;entryDy=0;entryPerimeter=0;" edge="1" parent="1" source="UK7c6okPU0lDiScp88yB-3" target="UK7c6okPU0lDiScp88yB-4">
          <mxGeometry relative="1" as="geometry" />
        </mxCell>
        <mxCell id="UK7c6okPU0lDiScp88yB-7" value="VPC" style="points=[[0,0],[0.25,0],[0.5,0],[0.75,0],[1,0],[1,0.25],[1,0.5],[1,0.75],[1,1],[0.75,1],[0.5,1],[0.25,1],[0,1],[0,0.75],[0,0.5],[0,0.25]];outlineConnect=0;gradientColor=none;html=1;whiteSpace=wrap;fontSize=12;fontStyle=0;container=1;pointerEvents=0;collapsible=0;recursiveResize=0;shape=mxgraph.aws4.group;grIcon=mxgraph.aws4.group_vpc;strokeColor=#248814;fillColor=none;verticalAlign=top;align=left;spacingLeft=30;fontColor=#AAB7B8;dashed=0;" vertex="1" parent="1">
          <mxGeometry x="270" y="200" width="510" height="340" as="geometry" />
        </mxCell>
        <mxCell id="UK7c6okPU0lDiScp88yB-4" value="" style="outlineConnect=0;dashed=0;verticalLabelPosition=bottom;verticalAlign=top;align=center;html=1;shape=mxgraph.aws3.dynamo_db;fillColor=#2E73B8;gradientColor=none;" vertex="1" parent="UK7c6okPU0lDiScp88yB-7">
          <mxGeometry x="390" y="116.5" width="72" height="81" as="geometry" />
        </mxCell>
        <mxCell id="UK7c6okPU0lDiScp88yB-11" style="edgeStyle=orthogonalEdgeStyle;rounded=0;orthogonalLoop=1;jettySize=auto;html=1;" edge="1" parent="UK7c6okPU0lDiScp88yB-7" source="UK7c6okPU0lDiScp88yB-9" target="UK7c6okPU0lDiScp88yB-4">
          <mxGeometry relative="1" as="geometry" />
        </mxCell>
        <mxCell id="UK7c6okPU0lDiScp88yB-9" value="" style="outlineConnect=0;dashed=0;verticalLabelPosition=bottom;verticalAlign=top;align=center;html=1;shape=mxgraph.aws3.lambda_function;fillColor=#F58534;gradientColor=none;" vertex="1" parent="UK7c6okPU0lDiScp88yB-7">
          <mxGeometry x="221" y="230" width="69" height="72" as="geometry" />
        </mxCell>
        <mxCell id="UK7c6okPU0lDiScp88yB-15" value="" style="sketch=0;points=[[0,0,0],[0.25,0,0],[0.5,0,0],[0.75,0,0],[1,0,0],[0,1,0],[0.25,1,0],[0.5,1,0],[0.75,1,0],[1,1,0],[0,0.25,0],[0,0.5,0],[0,0.75,0],[1,0.25,0],[1,0.5,0],[1,0.75,0]];outlineConnect=0;fontColor=#232F3E;fillColor=#7AA116;strokeColor=#ffffff;dashed=0;verticalLabelPosition=bottom;verticalAlign=top;align=center;html=1;fontSize=12;fontStyle=0;aspect=fixed;shape=mxgraph.aws4.resourceIcon;resIcon=mxgraph.aws4.s3;" vertex="1" parent="UK7c6okPU0lDiScp88yB-7">
          <mxGeometry x="390" y="10" width="78" height="78" as="geometry" />
        </mxCell>
        <mxCell id="UK7c6okPU0lDiScp88yB-17" style="edgeStyle=orthogonalEdgeStyle;rounded=0;orthogonalLoop=1;jettySize=auto;html=1;entryX=1;entryY=0.5;entryDx=0;entryDy=0;entryPerimeter=0;" edge="1" parent="UK7c6okPU0lDiScp88yB-7" source="UK7c6okPU0lDiScp88yB-9" target="UK7c6okPU0lDiScp88yB-15">
          <mxGeometry relative="1" as="geometry" />
        </mxCell>
        <mxCell id="UK7c6okPU0lDiScp88yB-10" style="edgeStyle=orthogonalEdgeStyle;rounded=0;orthogonalLoop=1;jettySize=auto;html=1;entryX=0;entryY=0.5;entryDx=0;entryDy=0;entryPerimeter=0;" edge="1" parent="1" source="UK7c6okPU0lDiScp88yB-1" target="UK7c6okPU0lDiScp88yB-9">
          <mxGeometry relative="1" as="geometry" />
        </mxCell>
        <mxCell id="UK7c6okPU0lDiScp88yB-13" style="edgeStyle=orthogonalEdgeStyle;rounded=0;orthogonalLoop=1;jettySize=auto;html=1;" edge="1" parent="1" source="UK7c6okPU0lDiScp88yB-12" target="UK7c6okPU0lDiScp88yB-7">
          <mxGeometry relative="1" as="geometry" />
        </mxCell>
        <mxCell id="UK7c6okPU0lDiScp88yB-12" value="" style="outlineConnect=0;dashed=0;verticalLabelPosition=bottom;verticalAlign=top;align=center;html=1;shape=mxgraph.aws3.route_53;fillColor=#F58536;gradientColor=none;" vertex="1" parent="1">
          <mxGeometry x="150" y="310.5" width="70.5" height="85.5" as="geometry" />
        </mxCell>
      </root>
    </mxGraphModel>
  </diagram>
</mxfile>
